PathFileType	4	(X/Y/Z)	C:/Users/opensim2020/Desktop/walking_exp_matlab/subject01/subject01_trc/subject01_walking17_run_cyclic.trc																																																																																																																																																																																					
DataRate	CameraRate	NumFrames	NumMarkers	Units	OrigDataRate	OrigDataStartFrame	OrigNumFrames																																																																																																																																																																																	
100	100	6	61	mm	100	325	58																																																																																																																																																																																	
Frame#	Time	LTHI			LKNE			RELB			STRN			RWRA			LSHO			RFRM			RUPA			RSHO			RASI			RBHD			RFIN			LFHD			RFHD			CLAV			LHEE			RWRB			LASI			LBHD			LWRA			LTIB			RTHI			LWRB			LTOE			RKNE			C7			LFRM			LFIN			LUPA			LELB			RTIB			RTOE			RBAK			RANK			T10			LPSI			LANK			RHEE			RPSI			*39			*40			*41			*42			*43			*44			*45			*46			*47			*48			*49			*50			*51			*52			*53			*54			*55			*56			*57			*58			*59			*60		
		X1	Y1	Z1	X2	Y2	Z2	X3	Y3	Z3	X4	Y4	Z4	X5	Y5	Z5	X6	Y6	Z6	X7	Y7	Z7	X8	Y8	Z8	X9	Y9	Z9	X10	Y10	Z10	X11	Y11	Z11	X12	Y12	Z12	X13	Y13	Z13	X14	Y14	Z14	X15	Y15	Z15	X16	Y16	Z16	X17	Y17	Z17	X18	Y18	Z18	X19	Y19	Z19	X20	Y20	Z20	X21	Y21	Z21	X22	Y22	Z22	X23	Y23	Z23	X24	Y24	Z24	X25	Y25	Z25	X26	Y26	Z26	X27	Y27	Z27	X28	Y28	Z28	X29	Y29	Z29	X30	Y30	Z30	X31	Y31	Z31	X32	Y32	Z32	X33	Y33	Z33	X34	Y34	Z34	X35	Y35	Z35	X36	Y36	Z36	X37	Y37	Z37	X38	Y38	Z38	X39	Y39	Z39	X40	Y40	Z40	X41	Y41	Z41	X42	Y42	Z42	X43	Y43	Z43	X44	Y44	Z44	X45	Y45	Z45	X46	Y46	Z46	X47	Y47	Z47	X48	Y48	Z48	X49	Y49	Z49	X50	Y50	Z50	X51	Y51	Z51	X52	Y52	Z52	X53	Y53	Z53	X54	Y54	Z54	X55	Y55	Z55	X56	Y56	Z56	X57	Y57	Z57	X58	Y58	Z58	X59	Y59	Z59	X60	Y60	Z60	X61	Y61	Z61
																																																																																																																																																																																								
42	0.41	423.52979	564.00281	-572.18243	390.08511	433.06207	-556.76263	246.36601	1143.73242	-97.91819	562.44379	1171.07849	-393.75156	396.17789	937.77344	-129.17622	504.44968	1355.93787	-554.25452	292.13632	1021.59833	-81.74628	309.54297	1244.87292	-142.69566	455.91696	1355.55066	-252.07275	475.64175	913.77637	-318.13763	410.75705	1588.26208	-328.90613	434.08231	874.27393	-91.86159	495.8559	1640.79333	-464.51511	514.91193	1654.08398	-353.79355	532.68506	1329.15271	-391.28766	-15.91581	402.08981	-447.79337	361.17941	916.68152	-87.53806	472.95728	916.68024	-521.5968	392.27237	1577.83655	-446.44315	614.16888	1050.61536	-502.60547	211.94157	407.07901	-553.17828	555.94611	602.28308	-263.2688	628.08734	998.45654	-527.52936	-51.65493	217.54494	-507.85278	635.44702	467.86215	-290.56003	392.89597	1403.31567	-414.26282	554.9483	1022.60284	-623.23822	677.91467	1021.70209	-465.69943	480.17612	1202.07507	-672.18976	469.41891	1054.85095	-708.50299	616.34174	289.89026	-284.73401	770.03046	38.38272	-358.03345	312.55096	1230.38843	-351.43106	624.81787	81.84097	-336.32309	323.03986	1133.65234	-423.61105	300.58124	942.69971	-470.50919	1.97881	366.62433	-504.34052	574.854	51.45909	-383.55969	304.53018	930.09174	-328.41681	1973.18225	1023.61188	-3101.88037	2012.37622	1022.01001	-3140.70557	NaN	NaN	NaN	495.41156	1686.68298	-376.14114	NaN	NaN	NaN	NaN	NaN	NaN	NaN	NaN	NaN	NaN	NaN	NaN	NaN	NaN	NaN	NaN	NaN	NaN	NaN	NaN	NaN	NaN	NaN	NaN	NaN	NaN	NaN	NaN	NaN	NaN	NaN	NaN	NaN	NaN	NaN	NaN	NaN	NaN	NaN	NaN	NaN	NaN	NaN	NaN	NaN	NaN	NaN	NaN	NaN	NaN	NaN	NaN	NaN	NaN
43	0.42	483.8367	559.91827	-577.38788	459.69525	428.53015	-562.54718	304.06439	1123.04651	-94.09593	608.70227	1165.9762	-397.43506	463.33603	927.00897	-136.36722	543.98297	1353.10828	-555.07019	356.92984	1003.24921	-83.58746	360.73032	1227.06494	-138.44218	502.1694	1348.448	-249.99924	521.49493	908.24365	-319.21753	456.02908	1583.97815	-325.85184	505.54385	864.5697	-102.25922	539.974	1636.63989	-462.17682	560.24402	1649.48389	-351.51331	577.40918	1323.86475	-392.09631	56.2328	408.9473	-448.63821	430.98523	902.7677	-94.33165	520.24139	912.77179	-523.83875	436.28848	1574.0188	-443.25348	647.98853	1023.73346	-516.61548	284.23669	407.05563	-557.44641	594.64819	591.84814	-262.41718	656.05072	972.37201	-545.72595	18.80024	226.10475	-513.42285	668.40771	452.76996	-291.64166	435.61722	1397.13269	-410.65466	582.21643	1011.24896	-636.87836	710.56995	986.4881	-485.56284	511.35699	1202.52734	-675.03406	495.69104	1056.75916	-715.16864	635.67395	278.28482	-285.17041	768.45465	38.58066	-362.19806	357.89243	1222.30273	-345.65643	624.56348	72.36577	-341.64529	368.58572	1126.47473	-420.16913	346.24765	934.06079	-470.88547	74.00249	373.86502	-506.2131	572.22711	42.04798	-387.25751	349.86893	922.69446	-327.26221	1973.09082	1023.52637	-3101.95239	2012.50769	1022.14618	-3140.78589	NaN	NaN	NaN	541.48956	1681.93665	-373.58197	NaN	NaN	NaN	NaN	NaN	NaN	NaN	NaN	NaN	NaN	NaN	NaN	NaN	NaN	NaN	NaN	NaN	NaN	NaN	NaN	NaN	NaN	NaN	NaN	NaN	NaN	NaN	NaN	NaN	NaN	NaN	NaN	NaN	NaN	NaN	NaN	NaN	NaN	NaN	NaN	NaN	NaN	NaN	NaN	NaN	NaN	NaN	NaN	NaN	NaN	NaN	NaN	NaN	NaN
44	0.43	544.49445	555.59637	-581.93549	531.19312	424.44861	-568.01971	363.67834	1101.57166	-90.68512	654.71643	1161.26184	-400.73993	532.07397	917.36542	-144.82278	583.4046	1350.40857	-556.29126	423.77429	984.9787	-86.58378	413.26321	1208.80859	-134.2908	548.98492	1341.33215	-248.12883	564.73987	902.86121	-320.64151	501.10938	1579.57886	-322.87308	578.18066	856.59839	-114.23227	583.7821	1632.94226	-460.04257	605.20227	1645.37903	-349.57596	622.39862	1318.85767	-392.98532	129.7747	412.79016	-450.38702	502.65533	889.76819	-103.01728	565.93683	907.90302	-524.54865	480.22946	1569.93726	-440.03595	679.22003	997.52441	-533.47443	357.89301	405.24835	-562.68842	628.2486	583.93988	-262.9368	682.34631	948.71118	-567.55927	93.9018	230.85907	-517.75659	704.89227	444.20294	-294.95084	478.01178	1390.54077	-407.00778	607.44641	1000.29016	-651.15979	740.09888	952.41925	-509.539	542.26263	1203.15759	-676.83777	521.13092	1058.93921	-721.16455	659.57513	274.74237	-289.94476	769.13739	38.38166	-363.28958	403.06345	1213.06531	-339.87915	628.55988	71.31514	-346.42374	413.60077	1117.82458	-417.23062	389.7207	924.57709	-471.94345	148.08144	377.63226	-508.31985	573.07294	41.25821	-391.96692	392.45422	914.8219	-325.42917	1973.09668	1023.53052	-3101.97168	2012.47339	1022.19116	-3140.79321	NaN	NaN	NaN	587.03961	1676.7738	-371.43179	NaN	NaN	NaN	NaN	NaN	NaN	NaN	NaN	NaN	NaN	NaN	NaN	NaN	NaN	NaN	NaN	NaN	NaN	NaN	NaN	NaN	NaN	NaN	NaN	NaN	NaN	NaN	NaN	NaN	NaN	NaN	NaN	NaN	NaN	NaN	NaN	NaN	NaN	NaN	NaN	NaN	NaN	NaN	NaN	NaN	NaN	NaN	NaN	NaN	NaN	NaN	NaN	NaN	NaN
45	0.44	605.89636	550.93353	-585.21747	604.55676	421.71936	-571.81909	425.4888	1080.05127	-88.32204	700.35992	1157.6936	-403.45444	602.10095	909.63519	-154.89388	623.20056	1348.00281	-557.82556	492.64767	967.57922	-91.01559	468.54364	1191.47217	-130.68521	595.77631	1335.22974	-246.21033	605.54791	898.04138	-321.72	546.45709	1575.63367	-320.02826	652.17291	851.25836	-127.69359	627.2345	1630.61011	-458.14426	649.91571	1642.63208	-347.41217	667.31104	1315.13391	-394.00665	204.4523	413.20853	-453.33289	576.13171	878.57935	-112.79253	607.57648	900.20032	-525.31201	524.31195	1566.20923	-437.07364	707.74829	973.59882	-552.20331	433.22311	402.42108	-567.88586	659.93994	580.04852	-263.71307	704.7995	927.21796	-590.22821	173.65137	230.94493	-521.62769	740.51184	441.97528	-298.60791	520.52631	1385.68994	-403.71414	630.59052	990.78027	-665.85388	766.22522	921.76575	-536.76007	574.22058	1203.72839	-677.76416	545.42206	1061.22473	-725.48395	687.2157	273.72177	-294.4711	769.68616	38.37542	-363.41766	448.98819	1203.57605	-335.16022	632.84198	78.7848	-347.4953	457.97217	1108.23364	-415.02121	430.50919	914.42303	-473.68326	224.17477	377.63242	-511.01999	574.43616	44.75719	-393.80301	432.15753	906.77161	-324.00153	1972.97729	1023.88574	-3102.13721	2012.60059	1022.24915	-3140.80591	NaN	NaN	NaN	631.65308	1672.35437	-369.19778	NaN	NaN	NaN	NaN	NaN	NaN	NaN	NaN	NaN	NaN	NaN	NaN	NaN	NaN	NaN	NaN	NaN	NaN	NaN	NaN	NaN	NaN	NaN	NaN	NaN	NaN	NaN	NaN	NaN	NaN	NaN	NaN	NaN	NaN	NaN	NaN	NaN	NaN	NaN	NaN	NaN	NaN	NaN	NaN	NaN	NaN	NaN	NaN	NaN	NaN	NaN	NaN	NaN	NaN
46	0.45	671.84821	553.16095	-588.09332	680.26807	422.65567	-573.48425	490.71085	1060.80212	-87.96872	745.21045	1155.53613	-405.46359	672.92834	905.03265	-166.71262	663.9325	1346.14868	-559.66736	563.41174	952.10352	-97.53201	526.9505	1177.86353	-129.23857	642.34857	1330.6571	-244.91183	647.62415	894.96808	-320.90833	591.81396	1572.74854	-317.67847	726.81049	849.93658	-143.17155	670.62958	1629.61084	-456.13699	694.46002	1641.31702	-345.4205	712.06219	1313.11169	-395.1344	279.37286	409.8598	-457.09308	651.04999	870.37463	-124.59984	650.48419	894.24414	-524.18518	568.63446	1563.74463	-434.45175	733.49927	952.55768	-572.63123	510.52075	400.00742	-571.57935	694.66339	578.89734	-264.04361	724.97705	910.06604	-614.0719	258.00473	226.43433	-525.11169	774.60614	441.07416	-301.85968	565.9223	1385.41821	-401.46869	651.82556	984.12421	-680.40588	789.22229	895.92639	-566.29504	607.59387	1204.58875	-678.07898	570.05206	1064.90625	-729.39355	710.93536	273.67953	-295.608	769.69568	38.39748	-363.32043	494.13367	1200.22815	-335.00165	634.72351	80.68316	-347.17157	501.75784	1104.81946	-413.89737	470.49008	903.1394	-476.50278	302.24951	374.31073	-513.98621	574.95892	48.32601	-393.51218	470.95587	900.37939	-327.93839	1972.96936	1024.07898	-3102.10718	2012.5874	1022.16937	-3140.73706	NaN	NaN	NaN	674.39655	1669.67212	-367.03754	NaN	NaN	NaN	NaN	NaN	NaN	NaN	NaN	NaN	NaN	NaN	NaN	NaN	NaN	NaN	NaN	NaN	NaN	NaN	NaN	NaN	NaN	NaN	NaN	NaN	NaN	NaN	NaN	NaN	NaN	NaN	NaN	NaN	NaN	NaN	NaN	NaN	NaN	NaN	NaN	NaN	NaN	NaN	NaN	NaN	NaN	NaN	NaN	NaN	NaN	NaN	NaN	NaN	NaN
47	0.46	739.35089	561.88733	-590.76172	757.98083	430.56418	-573.6217	557.49634	1046.44189	-90.11706	789.40674	1154.05554	-407.20813	744.00085	904.56244	-180.49615	706.29535	1344.98035	-560.78137	635.44122	941.29169	-106.27147	585.20703	1167.43701	-130.03046	689.18518	1327.67493	-244.62888	690.12158	894.44202	-318.15457	637.41089	1571.03101	-315.66489	801.24506	853.30878	-160.26712	714.46899	1628.98572	-454.46054	739.19946	1640.17603	-344.25739	756.82928	1311.58984	-396.15308	354.51596	402.32983	-460.53479	727.04443	866.55884	-138.5125	693.81305	890.83514	-521.11621	613.04871	1562.47705	-432.16599	757.47076	935.77087	-593.80023	589.10632	399.77814	-574.09247	731.76941	578.52478	-264.08951	742.77106	897.25104	-637.58331	346.15509	217.91226	-528.09094	806.08704	436.40045	-304.36026	613.75665	1386.53113	-399.69144	672.66846	981.74823	-693.62201	809.45868	875.48773	-597.3125	641.70667	1206.90186	-677.97363	594.53192	1070.77002	-732.79871	725.78198	272.3605	-293.73297	769.27399	38.19986	-363.20697	538.42871	1200.41492	-333.15009	636.6424	82.79551	-345.40897	545.07111	1107.11084	-412.81271	511.49219	894.54889	-481.56772	381.43643	367.56293	-516.84528	574.9032	52.02809	-391.24982	509.4884	900.81891	-335.71152	1973.32861	1023.11029	-3102.09595	2012.51855	1022.16956	-3140.70313	NaN	NaN	NaN	717.20337	1668.63452	-364.91071	NaN	NaN	NaN	NaN	NaN	NaN	NaN	NaN	NaN	NaN	NaN	NaN	NaN	NaN	NaN	NaN	NaN	NaN	NaN	NaN	NaN	NaN	NaN	NaN	NaN	NaN	NaN	NaN	NaN	NaN	NaN	NaN	NaN	NaN	NaN	NaN	NaN	NaN	NaN	NaN	NaN	NaN	NaN	NaN	NaN	NaN	NaN	NaN	NaN	NaN	NaN	NaN	NaN	NaN
